<mxfile host="app.diagrams.net" modified="2022-04-08T21:03:20.479Z" agent="5.0 (Windows NT 10.0; Win64; x64) AppleWebKit/537.36 (KHTML, like Gecko) Chrome/100.0.4896.79 Safari/537.36" etag="JgNF_MYyfezJd8uj72yP" version="17.4.0" type="github" pages="2">
  <diagram id="ShS014seEOvjVo1bzFeK" name="Components">
    <mxGraphModel dx="1137" dy="646" grid="1" gridSize="10" guides="1" tooltips="1" connect="1" arrows="1" fold="1" page="1" pageScale="1" pageWidth="1169" pageHeight="827" math="0" shadow="0">
      <root>
        <mxCell id="0" />
        <mxCell id="1" parent="0" />
        <mxCell id="H-EVm2sZa16f1iU5NlVV-1" value="" style="rounded=0;whiteSpace=wrap;html=1;" parent="1" vertex="1">
          <mxGeometry x="235" y="230" width="720" height="530" as="geometry" />
        </mxCell>
        <mxCell id="H-EVm2sZa16f1iU5NlVV-2" style="edgeStyle=orthogonalEdgeStyle;rounded=0;orthogonalLoop=1;jettySize=auto;html=1;startArrow=classic;startFill=1;" parent="1" target="H-EVm2sZa16f1iU5NlVV-13" edge="1">
          <mxGeometry relative="1" as="geometry">
            <mxPoint x="360" y="471" as="sourcePoint" />
          </mxGeometry>
        </mxCell>
        <mxCell id="H-EVm2sZa16f1iU5NlVV-3" style="edgeStyle=orthogonalEdgeStyle;rounded=0;orthogonalLoop=1;jettySize=auto;html=1;startArrow=classic;startFill=1;exitX=0.75;exitY=1;exitDx=0;exitDy=0;" parent="1" source="H-EVm2sZa16f1iU5NlVV-5" edge="1">
          <mxGeometry relative="1" as="geometry">
            <mxPoint x="433" y="689" as="targetPoint" />
          </mxGeometry>
        </mxCell>
        <mxCell id="H-EVm2sZa16f1iU5NlVV-4" style="edgeStyle=orthogonalEdgeStyle;rounded=0;orthogonalLoop=1;jettySize=auto;html=1;startArrow=classic;startFill=1;" parent="1" edge="1">
          <mxGeometry relative="1" as="geometry">
            <mxPoint x="400" y="344" as="targetPoint" />
            <mxPoint x="400" y="400" as="sourcePoint" />
          </mxGeometry>
        </mxCell>
        <mxCell id="H-EVm2sZa16f1iU5NlVV-5" value="Berlin Microservice&lt;br&gt;(port 8081)" style="rounded=1;whiteSpace=wrap;html=1;fillColor=#dae8fc;strokeColor=#6c8ebf;" parent="1" vertex="1">
          <mxGeometry x="335" y="410" width="130" height="60" as="geometry" />
        </mxCell>
        <mxCell id="H-EVm2sZa16f1iU5NlVV-6" style="edgeStyle=orthogonalEdgeStyle;rounded=0;orthogonalLoop=1;jettySize=auto;html=1;entryX=0.484;entryY=1.13;entryDx=0;entryDy=0;entryPerimeter=0;startArrow=classic;startFill=1;" parent="1" target="H-EVm2sZa16f1iU5NlVV-10" edge="1">
          <mxGeometry relative="1" as="geometry">
            <mxPoint x="590" y="400" as="sourcePoint" />
          </mxGeometry>
        </mxCell>
        <mxCell id="H-EVm2sZa16f1iU5NlVV-7" style="edgeStyle=orthogonalEdgeStyle;rounded=0;orthogonalLoop=1;jettySize=auto;html=1;exitX=0.206;exitY=1.027;exitDx=0;exitDy=0;exitPerimeter=0;entryX=0;entryY=0.578;entryDx=0;entryDy=0;entryPerimeter=0;startArrow=classic;startFill=1;" parent="1" source="H-EVm2sZa16f1iU5NlVV-9" target="H-EVm2sZa16f1iU5NlVV-12" edge="1">
          <mxGeometry relative="1" as="geometry">
            <mxPoint x="552" y="700" as="targetPoint" />
            <Array as="points">
              <mxPoint x="552" y="530" />
              <mxPoint x="552" y="530" />
            </Array>
          </mxGeometry>
        </mxCell>
        <mxCell id="H-EVm2sZa16f1iU5NlVV-8" style="edgeStyle=orthogonalEdgeStyle;rounded=0;orthogonalLoop=1;jettySize=auto;html=1;entryX=0.5;entryY=0;entryDx=0;entryDy=0;entryPerimeter=0;exitX=0.809;exitY=1.013;exitDx=0;exitDy=0;exitPerimeter=0;startArrow=classic;startFill=1;" parent="1" source="H-EVm2sZa16f1iU5NlVV-9" target="H-EVm2sZa16f1iU5NlVV-11" edge="1">
          <mxGeometry relative="1" as="geometry" />
        </mxCell>
        <mxCell id="H-EVm2sZa16f1iU5NlVV-9" value="Tokio Microservice&lt;br&gt;(port 8082)" style="rounded=1;whiteSpace=wrap;html=1;fillColor=#d5e8d4;strokeColor=#82b366;" parent="1" vertex="1">
          <mxGeometry x="525" y="410" width="130" height="60" as="geometry" />
        </mxCell>
        <mxCell id="H-EVm2sZa16f1iU5NlVV-10" value="Register Microservice (Spring Boot)" style="rounded=1;whiteSpace=wrap;html=1;fillColor=#fff2cc;strokeColor=#d6b656;" parent="1" vertex="1">
          <mxGeometry x="285" y="300" width="630" height="40" as="geometry" />
        </mxCell>
        <mxCell id="H-EVm2sZa16f1iU5NlVV-11" value="Mongo DB" style="shape=cylinder3;whiteSpace=wrap;html=1;boundedLbl=1;backgroundOutline=1;size=15;fillColor=#d5e8d4;strokeColor=#82b366;" parent="1" vertex="1">
          <mxGeometry x="595" y="550" width="70" height="80" as="geometry" />
        </mxCell>
        <mxCell id="H-EVm2sZa16f1iU5NlVV-12" value="Kafka" style="shape=cylinder3;whiteSpace=wrap;html=1;boundedLbl=1;backgroundOutline=1;size=15;rotation=90;labelPosition=center;verticalLabelPosition=middle;align=center;verticalAlign=middle;horizontal=0;fillColor=#ffe6cc;strokeColor=#d79b00;" parent="1" vertex="1">
          <mxGeometry x="580" y="400" width="40" height="620" as="geometry" />
        </mxCell>
        <mxCell id="H-EVm2sZa16f1iU5NlVV-13" value="H2" style="shape=cylinder3;whiteSpace=wrap;html=1;boundedLbl=1;backgroundOutline=1;size=15;fillColor=#dae8fc;strokeColor=#6c8ebf;" parent="1" vertex="1">
          <mxGeometry x="325" y="550" width="70" height="80" as="geometry" />
        </mxCell>
        <mxCell id="H-EVm2sZa16f1iU5NlVV-14" value="Gateway Microservice (Spring Boot)" style="rounded=1;whiteSpace=wrap;html=1;fillColor=#f8cecc;strokeColor=#b85450;" parent="1" vertex="1">
          <mxGeometry x="285" y="260" width="630" height="40" as="geometry" />
        </mxCell>
        <mxCell id="H-EVm2sZa16f1iU5NlVV-15" style="edgeStyle=orthogonalEdgeStyle;rounded=0;orthogonalLoop=1;jettySize=auto;html=1;entryX=0.467;entryY=-0.125;entryDx=0;entryDy=0;entryPerimeter=0;exitX=0.5;exitY=1;exitDx=0;exitDy=0;startArrow=classic;startFill=1;" parent="1" source="H-EVm2sZa16f1iU5NlVV-24" target="H-EVm2sZa16f1iU5NlVV-14" edge="1">
          <mxGeometry relative="1" as="geometry">
            <mxPoint x="580" y="160" as="sourcePoint" />
          </mxGeometry>
        </mxCell>
        <mxCell id="H-EVm2sZa16f1iU5NlVV-16" value="User Microservice&lt;br&gt;(Spring Boot)" style="rounded=1;whiteSpace=wrap;html=1;fillColor=#d5e8d4;strokeColor=#82b366;" parent="1" vertex="1">
          <mxGeometry x="535" y="400" width="130" height="60" as="geometry" />
        </mxCell>
        <mxCell id="H-EVm2sZa16f1iU5NlVV-17" value="Account Microservice&lt;br&gt;(Spring Boot)" style="rounded=1;whiteSpace=wrap;html=1;fillColor=#dae8fc;strokeColor=#6c8ebf;" parent="1" vertex="1">
          <mxGeometry x="345" y="400" width="130" height="60" as="geometry" />
        </mxCell>
        <mxCell id="H-EVm2sZa16f1iU5NlVV-18" style="edgeStyle=orthogonalEdgeStyle;rounded=0;orthogonalLoop=1;jettySize=auto;html=1;entryX=0.801;entryY=1.095;entryDx=0;entryDy=0;entryPerimeter=0;startArrow=classic;startFill=1;exitX=0.414;exitY=0.01;exitDx=0;exitDy=0;exitPerimeter=0;" parent="1" source="H-EVm2sZa16f1iU5NlVV-21" target="H-EVm2sZa16f1iU5NlVV-10" edge="1">
          <mxGeometry relative="1" as="geometry" />
        </mxCell>
        <mxCell id="H-EVm2sZa16f1iU5NlVV-19" style="edgeStyle=orthogonalEdgeStyle;rounded=0;orthogonalLoop=1;jettySize=auto;html=1;exitX=0.25;exitY=1;exitDx=0;exitDy=0;entryX=-0.015;entryY=0.247;entryDx=0;entryDy=0;entryPerimeter=0;startArrow=classic;startFill=1;" parent="1" source="H-EVm2sZa16f1iU5NlVV-20" target="H-EVm2sZa16f1iU5NlVV-12" edge="1">
          <mxGeometry relative="1" as="geometry" />
        </mxCell>
        <mxCell id="H-EVm2sZa16f1iU5NlVV-20" value="Tokio Microservice&lt;br&gt;(port 8082)" style="rounded=1;whiteSpace=wrap;html=1;fillColor=#e1d5e7;strokeColor=#9673a6;" parent="1" vertex="1">
          <mxGeometry x="725" y="410" width="130" height="60" as="geometry" />
        </mxCell>
        <mxCell id="H-EVm2sZa16f1iU5NlVV-21" value="Order Microservice&lt;br&gt;(Spring Boot)" style="rounded=1;whiteSpace=wrap;html=1;fillColor=#e1d5e7;strokeColor=#9673a6;" parent="1" vertex="1">
          <mxGeometry x="735" y="400" width="130" height="60" as="geometry" />
        </mxCell>
        <mxCell id="H-EVm2sZa16f1iU5NlVV-22" style="edgeStyle=orthogonalEdgeStyle;rounded=0;orthogonalLoop=1;jettySize=auto;html=1;entryX=0.809;entryY=1.07;entryDx=0;entryDy=0;entryPerimeter=0;startArrow=classic;startFill=1;" parent="1" source="H-EVm2sZa16f1iU5NlVV-23" target="H-EVm2sZa16f1iU5NlVV-20" edge="1">
          <mxGeometry relative="1" as="geometry" />
        </mxCell>
        <mxCell id="H-EVm2sZa16f1iU5NlVV-23" value="H2" style="shape=cylinder3;whiteSpace=wrap;html=1;boundedLbl=1;backgroundOutline=1;size=15;fillColor=#e1d5e7;strokeColor=#9673a6;" parent="1" vertex="1">
          <mxGeometry x="795" y="550" width="70" height="80" as="geometry" />
        </mxCell>
        <mxCell id="H-EVm2sZa16f1iU5NlVV-24" value="Frontend" style="rounded=0;whiteSpace=wrap;html=1;fillColor=#bac8d3;strokeColor=#23445d;" parent="1" vertex="1">
          <mxGeometry x="520" y="120" width="120" height="60" as="geometry" />
        </mxCell>
      </root>
    </mxGraphModel>
  </diagram>
  <diagram id="VjPwTz51_NGB5odjylDg" name="Sequence">
    <mxGraphModel dx="1137" dy="646" grid="1" gridSize="10" guides="1" tooltips="1" connect="1" arrows="1" fold="1" page="1" pageScale="1" pageWidth="1169" pageHeight="827" math="0" shadow="0">
      <root>
        <mxCell id="gPD1QjkvR2cULd0hNCtH-0" />
        <mxCell id="gPD1QjkvR2cULd0hNCtH-1" parent="gPD1QjkvR2cULd0hNCtH-0" />
        <mxCell id="111Q3K0jnetC2yHj78cK-0" value="" style="rounded=0;whiteSpace=wrap;html=1;" parent="gPD1QjkvR2cULd0hNCtH-1" vertex="1">
          <mxGeometry x="80" y="57" width="990" height="560" as="geometry" />
        </mxCell>
        <mxCell id="0vzoqkwzD7u8C5kV-6FQ-0" value="Frontend" style="shape=umlLifeline;perimeter=lifelinePerimeter;whiteSpace=wrap;html=1;container=1;collapsible=0;recursiveResize=0;outlineConnect=0;fillColor=#bac8d3;strokeColor=#23445d;" parent="gPD1QjkvR2cULd0hNCtH-1" vertex="1">
          <mxGeometry x="120" y="80" width="100" height="520" as="geometry" />
        </mxCell>
        <mxCell id="0vzoqkwzD7u8C5kV-6FQ-7" style="edgeStyle=orthogonalEdgeStyle;rounded=0;orthogonalLoop=1;jettySize=auto;html=1;" parent="gPD1QjkvR2cULd0hNCtH-1" source="0vzoqkwzD7u8C5kV-6FQ-1" target="0vzoqkwzD7u8C5kV-6FQ-4" edge="1">
          <mxGeometry relative="1" as="geometry">
            <Array as="points">
              <mxPoint x="680" y="190" />
              <mxPoint x="680" y="190" />
            </Array>
          </mxGeometry>
        </mxCell>
        <mxCell id="0vzoqkwzD7u8C5kV-6FQ-8" value="PUBLISH" style="edgeLabel;html=1;align=center;verticalAlign=middle;resizable=0;points=[];" parent="0vzoqkwzD7u8C5kV-6FQ-7" vertex="1" connectable="0">
          <mxGeometry x="-0.0577" y="-2" relative="1" as="geometry">
            <mxPoint x="-260" y="-12" as="offset" />
          </mxGeometry>
        </mxCell>
        <mxCell id="0vzoqkwzD7u8C5kV-6FQ-1" value="Order Microservice" style="shape=umlLifeline;perimeter=lifelinePerimeter;whiteSpace=wrap;html=1;container=1;collapsible=0;recursiveResize=0;outlineConnect=0;fillColor=#e1d5e7;strokeColor=#9673a6;" parent="gPD1QjkvR2cULd0hNCtH-1" vertex="1">
          <mxGeometry x="310" y="80" width="100" height="520" as="geometry" />
        </mxCell>
        <mxCell id="XQ2y2k2I2RYl3vgFRFvk-1" style="edgeStyle=orthogonalEdgeStyle;rounded=0;orthogonalLoop=1;jettySize=auto;html=1;startArrow=classic;startFill=1;endArrow=none;endFill=0;" parent="gPD1QjkvR2cULd0hNCtH-1" edge="1">
          <mxGeometry relative="1" as="geometry">
            <mxPoint x="549.9966666666668" y="302" as="sourcePoint" />
            <mxPoint x="549.9966666666668" y="274" as="targetPoint" />
            <Array as="points">
              <mxPoint x="650" y="302" />
              <mxPoint x="650" y="274" />
            </Array>
          </mxGeometry>
        </mxCell>
        <mxCell id="XQ2y2k2I2RYl3vgFRFvk-2" value="Check User" style="edgeLabel;html=1;align=center;verticalAlign=middle;resizable=0;points=[];" parent="XQ2y2k2I2RYl3vgFRFvk-1" vertex="1" connectable="0">
          <mxGeometry x="0.4958" y="3" relative="1" as="geometry">
            <mxPoint x="-15" y="-14" as="offset" />
          </mxGeometry>
        </mxCell>
        <mxCell id="XQ2y2k2I2RYl3vgFRFvk-3" style="edgeStyle=orthogonalEdgeStyle;rounded=0;orthogonalLoop=1;jettySize=auto;html=1;startArrow=none;startFill=0;endArrow=classic;endFill=1;" parent="gPD1QjkvR2cULd0hNCtH-1" edge="1">
          <mxGeometry relative="1" as="geometry">
            <mxPoint x="549.6666666666665" y="357.9999999999999" as="sourcePoint" />
            <mxPoint x="969.5000000000005" y="357.9999999999999" as="targetPoint" />
          </mxGeometry>
        </mxCell>
        <mxCell id="XQ2y2k2I2RYl3vgFRFvk-4" value="PUBLISH" style="edgeLabel;html=1;align=center;verticalAlign=middle;resizable=0;points=[];" parent="XQ2y2k2I2RYl3vgFRFvk-3" vertex="1" connectable="0">
          <mxGeometry x="0.2213" y="2" relative="1" as="geometry">
            <mxPoint x="-230" y="-8" as="offset" />
          </mxGeometry>
        </mxCell>
        <mxCell id="0vzoqkwzD7u8C5kV-6FQ-2" value="User &lt;br&gt;Microservice" style="shape=umlLifeline;perimeter=lifelinePerimeter;whiteSpace=wrap;html=1;container=1;collapsible=0;recursiveResize=0;outlineConnect=0;fillColor=#d5e8d4;strokeColor=#82b366;" parent="gPD1QjkvR2cULd0hNCtH-1" vertex="1">
          <mxGeometry x="500" y="80" width="100" height="520" as="geometry" />
        </mxCell>
        <mxCell id="f4I970LOTauN_IgKurjq-5" style="edgeStyle=orthogonalEdgeStyle;rounded=0;orthogonalLoop=1;jettySize=auto;html=1;startArrow=none;startFill=0;endArrow=classic;endFill=1;exitX=0.488;exitY=0.822;exitDx=0;exitDy=0;exitPerimeter=0;" parent="gPD1QjkvR2cULd0hNCtH-1" edge="1">
          <mxGeometry relative="1" as="geometry">
            <mxPoint x="748.8000000000002" y="544.44" as="sourcePoint" />
            <mxPoint x="969.5000000000005" y="544.4166666666667" as="targetPoint" />
            <Array as="points">
              <mxPoint x="880" y="544" />
              <mxPoint x="880" y="544" />
            </Array>
          </mxGeometry>
        </mxCell>
        <mxCell id="f4I970LOTauN_IgKurjq-6" value="PUBLISH" style="edgeLabel;html=1;align=center;verticalAlign=middle;resizable=0;points=[];" parent="f4I970LOTauN_IgKurjq-5" vertex="1" connectable="0">
          <mxGeometry x="0.194" y="3" relative="1" as="geometry">
            <mxPoint x="-104" y="-7" as="offset" />
          </mxGeometry>
        </mxCell>
        <mxCell id="0vzoqkwzD7u8C5kV-6FQ-3" value="Account Microservice" style="shape=umlLifeline;perimeter=lifelinePerimeter;whiteSpace=wrap;html=1;container=1;collapsible=0;recursiveResize=0;outlineConnect=0;fillColor=#dae8fc;strokeColor=#6c8ebf;" parent="gPD1QjkvR2cULd0hNCtH-1" vertex="1">
          <mxGeometry x="700" y="80" width="100" height="520" as="geometry" />
        </mxCell>
        <mxCell id="0vzoqkwzD7u8C5kV-6FQ-9" style="edgeStyle=orthogonalEdgeStyle;rounded=0;orthogonalLoop=1;jettySize=auto;html=1;" parent="gPD1QjkvR2cULd0hNCtH-1" source="0vzoqkwzD7u8C5kV-6FQ-4" target="0vzoqkwzD7u8C5kV-6FQ-2" edge="1">
          <mxGeometry relative="1" as="geometry">
            <Array as="points">
              <mxPoint x="650" y="230" />
              <mxPoint x="650" y="230" />
            </Array>
          </mxGeometry>
        </mxCell>
        <mxCell id="0vzoqkwzD7u8C5kV-6FQ-10" value="CONSUME (group.id: user-consumers)" style="edgeLabel;html=1;align=center;verticalAlign=middle;resizable=0;points=[];" parent="0vzoqkwzD7u8C5kV-6FQ-9" vertex="1" connectable="0">
          <mxGeometry x="-0.2726" y="2" relative="1" as="geometry">
            <mxPoint x="51" y="-11" as="offset" />
          </mxGeometry>
        </mxCell>
        <mxCell id="f4I970LOTauN_IgKurjq-0" style="edgeStyle=orthogonalEdgeStyle;rounded=0;orthogonalLoop=1;jettySize=auto;html=1;startArrow=none;startFill=0;endArrow=classic;endFill=1;" parent="gPD1QjkvR2cULd0hNCtH-1" edge="1">
          <mxGeometry relative="1" as="geometry">
            <Array as="points">
              <mxPoint x="970" y="409" />
              <mxPoint x="750" y="409" />
            </Array>
            <mxPoint x="969.5000000000005" y="400.9999999999999" as="sourcePoint" />
            <mxPoint x="750" y="409" as="targetPoint" />
          </mxGeometry>
        </mxCell>
        <mxCell id="f4I970LOTauN_IgKurjq-1" value="CONSUME (group.id: account-consumers)" style="edgeLabel;html=1;align=center;verticalAlign=middle;resizable=0;points=[];" parent="f4I970LOTauN_IgKurjq-0" vertex="1" connectable="0">
          <mxGeometry x="-0.2116" y="-1" relative="1" as="geometry">
            <mxPoint x="-21" y="-9" as="offset" />
          </mxGeometry>
        </mxCell>
        <mxCell id="LYLqNlReHU_da6f58ZUD-0" style="edgeStyle=orthogonalEdgeStyle;rounded=0;orthogonalLoop=1;jettySize=auto;html=1;" edge="1" parent="gPD1QjkvR2cULd0hNCtH-1">
          <mxGeometry relative="1" as="geometry">
            <mxPoint x="969.5000000000005" y="583.9999999999999" as="sourcePoint" />
            <mxPoint x="359.6666666666665" y="583.9999999999999" as="targetPoint" />
          </mxGeometry>
        </mxCell>
        <mxCell id="0vzoqkwzD7u8C5kV-6FQ-4" value="Orders&lt;br&gt;(Kafka Topic)" style="shape=umlLifeline;perimeter=lifelinePerimeter;whiteSpace=wrap;html=1;container=1;collapsible=0;recursiveResize=0;outlineConnect=0;fillColor=#ffe6cc;strokeColor=#d79b00;" parent="gPD1QjkvR2cULd0hNCtH-1" vertex="1">
          <mxGeometry x="920" y="80" width="100" height="520" as="geometry" />
        </mxCell>
        <mxCell id="tZ3ByWfVz53tYDKbse3Q-0" value="Gateway" style="rounded=0;whiteSpace=wrap;html=1;horizontal=0;fillColor=#f8cecc;strokeColor=#b85450;" parent="gPD1QjkvR2cULd0hNCtH-1" vertex="1">
          <mxGeometry x="260" y="57" width="20" height="560" as="geometry" />
        </mxCell>
        <mxCell id="0vzoqkwzD7u8C5kV-6FQ-5" style="edgeStyle=orthogonalEdgeStyle;rounded=0;orthogonalLoop=1;jettySize=auto;html=1;" parent="gPD1QjkvR2cULd0hNCtH-1" source="0vzoqkwzD7u8C5kV-6FQ-0" target="0vzoqkwzD7u8C5kV-6FQ-1" edge="1">
          <mxGeometry relative="1" as="geometry">
            <Array as="points">
              <mxPoint x="290" y="160" />
              <mxPoint x="290" y="160" />
            </Array>
          </mxGeometry>
        </mxCell>
        <mxCell id="0vzoqkwzD7u8C5kV-6FQ-6" value="POST /Order" style="edgeLabel;html=1;align=center;verticalAlign=middle;resizable=0;points=[];" parent="0vzoqkwzD7u8C5kV-6FQ-5" vertex="1" connectable="0">
          <mxGeometry x="0.2789" y="3" relative="1" as="geometry">
            <mxPoint x="-81" y="-7" as="offset" />
          </mxGeometry>
        </mxCell>
        <mxCell id="f4I970LOTauN_IgKurjq-2" style="edgeStyle=orthogonalEdgeStyle;rounded=0;orthogonalLoop=1;jettySize=auto;html=1;startArrow=none;startFill=0;endArrow=classic;endFill=1;" parent="gPD1QjkvR2cULd0hNCtH-1" edge="1">
          <mxGeometry relative="1" as="geometry">
            <mxPoint x="749.9966666666668" y="469" as="sourcePoint" />
            <mxPoint x="750.33" y="496" as="targetPoint" />
            <Array as="points">
              <mxPoint x="860" y="469" />
              <mxPoint x="860" y="496" />
            </Array>
          </mxGeometry>
        </mxCell>
        <mxCell id="f4I970LOTauN_IgKurjq-3" value="Update balance" style="edgeLabel;html=1;align=center;verticalAlign=middle;resizable=0;points=[];" parent="f4I970LOTauN_IgKurjq-2" vertex="1" connectable="0">
          <mxGeometry x="-0.4534" relative="1" as="geometry">
            <mxPoint x="-16" y="-11" as="offset" />
          </mxGeometry>
        </mxCell>
        <mxCell id="LYLqNlReHU_da6f58ZUD-2" value="CONSUME (group.id: order-consumers)" style="edgeLabel;html=1;align=center;verticalAlign=middle;resizable=0;points=[];" vertex="1" connectable="0" parent="gPD1QjkvR2cULd0hNCtH-1">
          <mxGeometry x="868.0033333333337" y="574.9999999999999" as="geometry" />
        </mxCell>
      </root>
    </mxGraphModel>
  </diagram>
</mxfile>
